<svg fill="currentColor" xmlns="http://www.w3.org/2000/svg" viewBox="0 0 700 700" height="24px" width="24px">
	<path d="M591.2,479.2c0.6-0.6,0.6-1.1,0.6-1.1v-0.6V477v-0.6v-1.1v-0.6v-1.1V213.2v-0.6V212v-0.6V211v-0.6v-0.6v-0.6
		c0-0.6-0.6-0.6-0.6-1.1v-0.6c0-0.6-0.6-0.6-0.6-0.6v-0.6l-0.6-0.6c0,0-0.6-0.6-1.1-0.6h-0.6L361.6,73.8c-3.4-1.7-7.3-1.7-10.1,0
		L125.9,204.2c-0.6,0-0.6,0.6-1.1,0.6h-0.6l-1.7,1.7c0,0,0,0.6-0.6,0.6l-0.6,0.6v0.6c0,0,0,0.6-0.6,0.6v0.6v0.6v0.6v0.6v0.6v0.6v0.6
		V473v1.7v0.6c0,0.6,0.6,1.1,0.6,1.7s0.6,1.1,1.1,1.7v0.6c0,1.1,0.6,1.7,1.1,1.7l1.1,1.1h0.6h0.6l225.7,130.5c0,0,0.6,0,0.6,0.6h0.6
		h0.6h0.6h0.6h0.6h1.1h1.1h0.6h1.1h0.6h0.6h0.6c0,0,0.6,0,0.6-0.6L586.7,482h0.6h0.6c0,0,0.6,0,0.6-0.6l0.6-0.6c0,0,0.6,0,0.6-0.6
		l0.6-0.6c0,0,0-0.6,0.6-0.6C590.7,479.8,590.7,479.2,591.2,479.2L591.2,479.2z M143.2,271.4l62.7,155.7c0.6,1.7,0,3.9-2.2,5
		L146,456.2c-2.2,1.1-5-0.6-5-3.4V271.9C141,270.9,142.7,270.3,143.2,271.4L143.2,271.4z M468,426H245.1c-2.8,0-4.5-3.4-3.4-5.6
		l111.4-193.2c1.7-2.2,5-2.2,6.2,0l111.4,193.2C472.5,423.2,470.8,426,468,426L468,426z M219.9,405.8l-72.2-178.6
		c-1.1-2.2,0.6-5,3.4-5l180.3-9c2.8,0,5,2.8,3.4,5.6L226.1,406.4C225,409.2,221.1,409.2,219.9,405.8L219.9,405.8z M465.8,452.9
		l-106.4,131c-1.7,1.7-4.5,1.7-5.6,0l-106.4-131c-1.7-2.2,0-6.2,2.8-6.2H463C465.8,446.7,467.5,450.6,465.8,452.9L465.8,452.9z
		M487.1,406.4L378.4,218.8c-1.7-2.8,0.6-5.6,3.4-5.6l180.3,9c2.8,0,3.9,2.8,3.4,5l-72.2,178.6C492.1,409.2,488.2,409.2,487.1,406.4
		L487.1,406.4z M366.7,188.6v-81.8c0-2.8,3.4-4.5,5.6-3.4L535.8,198c1.1,0.6,0.6,2.2-0.6,2.2L370,191.9
		C368.3,191.9,366.7,190.2,366.7,188.6L366.7,188.6z M342.6,191.9l-165.2,8.4c-1.1,0-1.7-1.7-0.6-2.2L340.9,104
		c2.2-1.7,5.6,0.6,5.6,3.4v81.2C346.5,190.2,344.8,191.9,342.6,191.9L342.6,191.9z M219.4,451.2l90.2,111.4c0.6,1.1-0.6,2.2-1.7,1.7
		l-147.3-85.1c-2.8-1.7-2.2-5.6,0.6-6.7l54.3-22.4C216.6,449.5,218.3,450.1,219.4,451.2L219.4,451.2z M497.7,450.1l54.3,22.4
		c2.8,1.1,3.4,5,0.6,6.7l-147.8,85.1c-1.1,0.6-2.2-0.6-1.7-1.7l90.2-111.4C494.9,450.1,496.6,449.5,497.7,450.1L497.7,450.1z
		M567.1,456.2l-57.7-24.1c-1.7-0.6-2.8-2.8-2.2-5l62.7-155.7c0.6-1.1,2.2-0.6,2.2,0.6v180.9C572.2,455.7,569.4,457.4,567.1,456.2
			L567.1,456.2z"/>
</svg>
